<svg width="31" height="26" viewBox="0 0 31 26" fill="none" xmlns="http://www.w3.org/2000/svg">
<path d="M28.97 16.0764H15.1526C15.1526 16.0764 15.526 10.0688 22.0613 10.0688C28.5966 10.0688 28.97 16.0764 28.97 16.0764Z" stroke="#848181" stroke-width="2"/>
<circle cx="22.1344" cy="4.71079" r="4.09165" fill="#848181"/>
<circle cx="22.1343" cy="4.71022" r="3.18239" fill="#212121"/>
<path d="M15.1524 16.0769H1.33496C1.33496 16.0769 1.7084 10.0693 8.24367 10.0693C14.7789 10.0693 15.1524 16.0769 15.1524 16.0769Z" stroke="#848181" stroke-width="2"/>
<circle cx="8.31674" cy="4.71128" r="4.09165" fill="#848181"/>
<circle cx="8.31667" cy="4.71071" r="3.18239" fill="#212121"/>
<path d="M26.5667 24.6498H4.33862C4.33862 24.6498 4.93938 16.5396 15.4526 16.5396C25.9659 16.5396 26.5667 24.6498 26.5667 24.6498Z" stroke="#848181" stroke-width="2"/>
<circle cx="15.1522" cy="9.63045" r="5.40682" fill="#848181"/>
<circle cx="15.1523" cy="9.6306" r="4.2053" fill="#212121"/>
</svg>
